<svg width="22" height="22" viewBox="0 0 22 22" fill="none" xmlns="http://www.w3.org/2000/svg">
<mask id="mask0_9346_182488" style="mask-type:alpha" maskUnits="userSpaceOnUse" x="0" y="0" width="22" height="22">
<rect width="22" height="22" fill="#D9D9D9"/>
</mask>
<g mask="url(#mask0_9346_182488)">
<path d="M4.8656 18.7916C4.40849 18.7916 4.01799 18.6297 3.6941 18.306C3.37036 17.9821 3.2085 17.5916 3.2085 17.1345V4.86536C3.2085 4.40824 3.37036 4.01775 3.6941 3.69386C4.01799 3.37012 4.40849 3.20825 4.8656 3.20825H17.1347C17.2747 3.20825 17.4069 3.22559 17.5314 3.26027C17.6559 3.29495 17.7746 3.34697 17.8875 3.41634L16.6587 4.6449C16.6412 4.62733 16.6192 4.61266 16.5927 4.6009C16.5663 4.58913 16.5355 4.58325 16.5002 4.58325H4.8656C4.78325 4.58325 4.71565 4.60968 4.66279 4.66254C4.60993 4.71541 4.5835 4.78301 4.5835 4.86536V17.1345C4.5835 17.2168 4.60993 17.2844 4.66279 17.3373C4.71565 17.3902 4.78325 17.4166 4.8656 17.4166H17.1347C17.2171 17.4166 17.2847 17.3902 17.3375 17.3373C17.3904 17.2844 17.4168 17.2168 17.4168 17.1345V10.9946L18.7918 9.61965V17.1345C18.7918 17.5916 18.63 17.9821 18.3062 18.306C17.9823 18.6297 17.5918 18.7916 17.1347 18.7916H4.8656Z" fill="#069A69"/>
<path d="M5.8877 10.5804L10.5645 15.2572L19.7789 6.04287L18.8074 5.09985L10.5732 13.334L6.85386 9.61444L5.8877 10.5804Z" fill="#06E097"/>
</g>
</svg>
