<svg width="22" height="22" viewBox="0 0 22 22" fill="none" xmlns="http://www.w3.org/2000/svg">
<mask id="mask0_9346_182492" style="mask-type:alpha" maskUnits="userSpaceOnUse" x="0" y="0" width="22" height="22">
<rect width="22" height="22" fill="#D9D9D9"/>
</mask>
<g mask="url(#mask0_9346_182492)">
<path d="M4.86511 18.7918C4.40204 18.7918 4.01009 18.6314 3.68926 18.3106C3.36842 17.9897 3.20801 17.5978 3.20801 17.1347V4.8656C3.20801 4.40253 3.36842 4.01058 3.68926 3.68975C4.01009 3.36891 4.40204 3.2085 4.86511 3.2085H17.1342C17.5973 3.2085 17.9893 3.36891 18.3101 3.68975C18.6309 4.01058 18.7913 4.40253 18.7913 4.8656V17.1347C18.7913 17.5978 18.6309 17.9897 18.3101 18.3106C17.9893 18.6314 17.5973 18.7918 17.1342 18.7918H4.86511ZM4.86511 17.4168H17.1342C17.2048 17.4168 17.2694 17.3874 17.3281 17.3286C17.3869 17.2699 17.4163 17.2053 17.4163 17.1347V4.8656C17.4163 4.79502 17.3869 4.73039 17.3281 4.67172C17.2694 4.61291 17.2048 4.5835 17.1342 4.5835H4.86511C4.79453 4.5835 4.7299 4.61291 4.67124 4.67172C4.61242 4.73039 4.58301 4.79502 4.58301 4.8656V17.1347C4.58301 17.2053 4.61242 17.2699 4.67124 17.3286C4.7299 17.3874 4.79453 17.4168 4.86511 17.4168Z" fill="#9DA2B3"/>
</g>
</svg>
