<svg width="22" height="22" viewBox="0 0 22 22" fill="none" xmlns="http://www.w3.org/2000/svg">
<path d="M9.66057 14.4002C9.32379 14.4002 9.03874 14.2836 8.8054 14.0502C8.57207 13.8169 8.4554 13.5318 8.4554 13.1951V5.6054C8.4554 5.26862 8.57207 4.98357 8.8054 4.75024C9.03874 4.5169 9.32379 4.40024 9.66057 4.40024H15.2502C15.587 4.40024 15.8721 4.5169 16.1054 4.75024C16.3387 4.98357 16.4554 5.26862 16.4554 5.6054V13.1951C16.4554 13.5318 16.3387 13.8169 16.1054 14.0502C15.8721 14.2836 15.587 14.4002 15.2502 14.4002H9.66057ZM9.66057 13.4002H15.2502C15.3016 13.4002 15.3486 13.3788 15.3912 13.3361C15.434 13.2934 15.4554 13.2464 15.4554 13.1951V5.6054C15.4554 5.55407 15.434 5.50707 15.3912 5.4644C15.3486 5.42162 15.3016 5.40024 15.2502 5.40024H9.66057C9.60924 5.40024 9.56224 5.42162 9.51957 5.4644C9.47679 5.50707 9.4554 5.55407 9.4554 5.6054V13.1951C9.4554 13.2464 9.47679 13.2934 9.51957 13.3361C9.56224 13.3788 9.60924 13.4002 9.66057 13.4002ZM7.32724 16.7336C6.99046 16.7336 6.7054 16.6169 6.47207 16.3836C6.23874 16.1502 6.12207 15.8652 6.12207 15.5284V6.93874H7.12207V15.5284C7.12207 15.5797 7.14346 15.6267 7.18624 15.6694C7.2289 15.7122 7.2759 15.7336 7.32724 15.7336H13.9169V16.7336H7.32724Z" fill="#9DA2B3"/>
</svg>
