<svg xmlns="http://www.w3.org/2000/svg" width="32" height="16" viewBox="0 0 32 16" fill="none">
  <path fill-rule="evenodd" clip-rule="evenodd" d="M0 8C0 3.58171 3.25613 0 7.27273 0C8.43335 0 9.86322 0.546323 11.1623 1.15602C12.5237 1.79495 13.9818 2.6236 15.2778 3.39468C15.7288 3.66302 16.2712 3.66302 16.7222 3.39468C18.0182 2.6236 19.4763 1.79495 20.8377 1.15602C22.1368 0.546323 23.5667 0 24.7273 0C28.7439 0 32 3.58171 32 8C32 12.4183 28.7439 16 24.7273 16C23.5667 16 22.1368 15.4537 20.8377 14.844C19.4763 14.205 18.0182 13.3764 16.7222 12.6053C16.2712 12.337 15.7288 12.337 15.2778 12.6053C13.9818 13.3764 12.5237 14.205 11.1623 14.844C9.86322 15.4537 8.43335 16 7.27273 16C3.25613 16 0 12.4183 0 8ZM7.27273 3.2C4.86277 3.2 2.90909 5.34903 2.90909 8C2.90909 10.651 4.86277 12.8 7.27273 12.8C7.78108 12.8 8.72292 12.5098 10.0207 11.9007C11.2562 11.3208 12.6202 10.5485 13.8938 9.79066C15.2084 9.00853 16.7916 9.00853 18.1062 9.79066C19.3798 10.5485 20.7438 11.3208 21.9793 11.9007C23.2771 12.5098 24.2189 12.8 24.7273 12.8C27.1372 12.8 29.0909 10.651 29.0909 8C29.0909 5.34903 27.1372 3.2 24.7273 3.2C24.2189 3.2 23.2771 3.49024 21.9793 4.09932C20.7438 4.67917 19.3798 5.45153 18.1062 6.20934C16.7916 6.99147 15.2084 6.99147 13.8938 6.20934C12.6202 5.45153 11.2562 4.67917 10.0207 4.09932C8.72292 3.49024 7.78108 3.2 7.27273 3.2Z" fill="#EFEFF0"/>
</svg>
