<svg width="24" height="24" viewBox="0 0 24 24" fill="none" xmlns="http://www.w3.org/2000/svg">
<rect x="0.5" y="0.5" width="23" height="23" rx="11.5" stroke="#1E1E24"/>
<path d="M6.75 9.375C6.75 9.25897 6.79609 9.14769 6.87814 9.06564C6.96019 8.98359 7.07147 8.9375 7.1875 8.9375H8.9375C9.05353 8.9375 9.16481 8.98359 9.24686 9.06564C9.32891 9.14769 9.375 9.25897 9.375 9.375C9.375 9.49103 9.32891 9.60231 9.24686 9.68436C9.16481 9.76641 9.05353 9.8125 8.9375 9.8125H7.1875C7.07147 9.8125 6.96019 9.76641 6.87814 9.68436C6.79609 9.60231 6.75 9.49103 6.75 9.375ZM16.8125 14.1875H14.625V13.3125C14.625 13.1965 14.5789 13.0852 14.4969 13.0031C14.4148 12.9211 14.3035 12.875 14.1875 12.875C14.0715 12.875 13.9602 12.9211 13.8781 13.0031C13.7961 13.0852 13.75 13.1965 13.75 13.3125V15.9375C13.75 16.0535 13.7961 16.1648 13.8781 16.2469C13.9602 16.3289 14.0715 16.375 14.1875 16.375C14.3035 16.375 14.4148 16.3289 14.4969 16.2469C14.5789 16.1648 14.625 16.0535 14.625 15.9375V15.0625H16.8125C16.9285 15.0625 17.0398 15.0164 17.1219 14.9344C17.2039 14.8523 17.25 14.741 17.25 14.625C17.25 14.509 17.2039 14.3977 17.1219 14.3156C17.0398 14.2336 16.9285 14.1875 16.8125 14.1875ZM12.4375 14.1875H7.1875C7.07147 14.1875 6.96019 14.2336 6.87814 14.3156C6.79609 14.3977 6.75 14.509 6.75 14.625C6.75 14.741 6.79609 14.8523 6.87814 14.9344C6.96019 15.0164 7.07147 15.0625 7.1875 15.0625H12.4375C12.5535 15.0625 12.6648 15.0164 12.7469 14.9344C12.8289 14.8523 12.875 14.741 12.875 14.625C12.875 14.509 12.8289 14.3977 12.7469 14.3156C12.6648 14.2336 12.5535 14.1875 12.4375 14.1875ZM10.6875 11.125C10.8035 11.125 10.9148 11.0789 10.9969 10.9969C11.0789 10.9148 11.125 10.8035 11.125 10.6875V9.8125H16.8125C16.9285 9.8125 17.0398 9.76641 17.1219 9.68436C17.2039 9.60231 17.25 9.49103 17.25 9.375C17.25 9.25897 17.2039 9.14769 17.1219 9.06564C17.0398 8.98359 16.9285 8.9375 16.8125 8.9375H11.125V8.0625C11.125 7.94647 11.0789 7.83519 10.9969 7.75314C10.9148 7.67109 10.8035 7.625 10.6875 7.625C10.5715 7.625 10.4602 7.67109 10.3781 7.75314C10.2961 7.83519 10.25 7.94647 10.25 8.0625V10.6875C10.25 10.8035 10.2961 10.9148 10.3781 10.9969C10.4602 11.0789 10.5715 11.125 10.6875 11.125Z" fill="#6E7180"/>
</svg>
