<svg width="22" height="22" viewBox="0 0 22 22" fill="none" xmlns="http://www.w3.org/2000/svg">
<path fill-rule="evenodd" clip-rule="evenodd" d="M6.03813 4.15007C5.39379 4.15007 4.87146 4.67241 4.87146 5.31674V15.8167C4.87146 16.4611 5.39379 16.9834 6.03813 16.9834H16.5381C17.1825 16.9834 17.7048 16.4611 17.7048 15.8167V11.7334C17.7048 11.4112 17.4436 11.1501 17.1215 11.1501C16.7993 11.1501 16.5381 11.4112 16.5381 11.7334V15.8167H6.03813V5.31674L10.1215 5.31674C10.4436 5.31674 10.7048 5.05557 10.7048 4.73341C10.7048 4.41124 10.4436 4.15007 10.1215 4.15007H6.03813ZM17.5343 4.32093C17.5902 4.37685 17.6324 4.44131 17.6609 4.51012C17.6897 4.57975 17.7044 4.65383 17.7051 4.72802L17.7051 4.73393V8.23341C17.7051 8.55557 17.444 8.81674 17.1218 8.81674C16.7996 8.81674 16.5385 8.55557 16.5385 8.23341V6.1417L10.5343 12.1459C10.3065 12.3737 9.93711 12.3737 9.70931 12.1459C9.4815 11.9181 9.4815 11.5487 9.70931 11.3209L15.7135 5.31674H13.6218C13.2996 5.31674 13.0385 5.05557 13.0385 4.73341C13.0385 4.41124 13.2996 4.15007 13.6218 4.15007H17.1218C17.2711 4.15007 17.4204 4.20702 17.5343 4.32093Z" fill="#ADADAD"/>
</svg>
