<svg xmlns="http://www.w3.org/2000/svg" width="25" height="24" viewBox="0 0 25 24" fill="none">
  <mask id="mask0_10056_16240" style="mask-type:alpha" maskUnits="userSpaceOnUse" x="0" y="0" width="25" height="24">
    <rect x="0.5" width="24" height="24" fill="#D9D9D9"/>
  </mask>
  <g mask="url(#mask0_10056_16240)">
    <path d="M19.9414 20.4024L13.7441 14.2024C13.2506 14.6152 12.6815 14.9337 12.0366 15.1579C11.3918 15.3819 10.7315 15.4939 10.0559 15.4939C8.38171 15.4939 6.96688 14.9159 5.81138 13.7599C4.65587 12.6039 4.07812 11.1914 4.07812 9.5224C4.07812 7.8534 4.65521 6.44007 5.80938 5.2824C6.96371 4.12473 8.37621 3.5459 10.0469 3.5459C11.7175 3.5459 13.1318 4.1244 14.2896 5.2814C15.4473 6.43857 16.0261 7.85248 16.0261 9.52315C16.0261 10.2216 15.9088 10.8946 15.6741 11.5419C15.4395 12.1894 15.1263 12.7501 14.7346 13.2239L20.9346 19.4091L19.9414 20.4024ZM10.0521 14.0949C11.3321 14.0949 12.4146 13.6531 13.2996 12.7694C14.1846 11.8856 14.6271 10.8022 14.6271 9.5194C14.6271 8.2364 14.1846 7.15323 13.2996 6.2699C12.4146 5.38657 11.3313 4.9449 10.0496 4.9449C8.76796 4.9449 7.68546 5.38673 6.80213 6.2704C5.91879 7.15407 5.47713 8.2374 5.47713 9.5204C5.47713 10.8034 5.91888 11.8866 6.80238 12.7699C7.68604 13.6532 8.76929 14.0949 10.0521 14.0949Z" fill="#069A69"/>
  </g>
</svg>