<svg width="15" height="15" viewBox="0 0 15 15" fill="none" xmlns="http://www.w3.org/2000/svg">
<g clip-path="url(#clip0_8784_9002)">
<path d="M1.03696 4.32603C0.876159 4.48683 0.876159 4.74754 1.03696 4.90835L3.65742 7.5288C3.81822 7.68961 4.07894 7.68961 4.23974 7.5288C4.40055 7.368 4.40055 7.10728 4.23974 6.94648L1.91045 4.61719L4.23974 2.28789C4.40055 2.12709 4.40055 1.86638 4.23974 1.70557C4.07894 1.54477 3.81822 1.54477 3.65742 1.70557L1.03696 4.32603ZM13.6811 5.02895C13.9085 5.02895 14.0928 4.8446 14.0928 4.61719C14.0928 4.38978 13.9085 4.20542 13.6811 4.20542L13.6811 5.02895ZM1.32812 5.02895L13.6811 5.02895L13.6811 4.20542L1.32813 4.20542L1.32812 5.02895Z" fill="#B0FEE4"/>
<path d="M13.9708 10.674C14.1317 10.5132 14.1317 10.2525 13.9708 10.0917L11.3504 7.4712C11.1896 7.31039 10.9289 7.31039 10.7681 7.4712C10.6073 7.632 10.6073 7.89272 10.7681 8.05352L13.0974 10.3828L10.7681 12.7121C10.6073 12.8729 10.6073 13.1336 10.7681 13.2944C10.9289 13.4552 11.1896 13.4552 11.3504 13.2944L13.9708 10.674ZM1.32675 9.97105C1.09933 9.97105 0.914982 10.1554 0.914982 10.3828C0.914982 10.6102 1.09933 10.7946 1.32675 10.7946L1.32675 9.97105ZM13.6797 9.97105L1.32675 9.97105L1.32675 10.7946L13.6797 10.7946L13.6797 9.97105Z" fill="#B0FEE4"/>
</g>
<defs>
<clipPath id="clip0_8784_9002">
<rect width="14" height="14" fill="white" transform="translate(0.5 0.5)"/>
</clipPath>
</defs>
</svg>
