<svg width="17" height="18" viewBox="0 0 17 18" fill="none" xmlns="http://www.w3.org/2000/svg">
<path d="M8.09296 9.4266C8.26418 9.4266 8.442 9.36074 8.56712 9.22244L11.3924 6.25233C11.6426 5.9889 11.636 5.57401 11.366 5.32376C11.1026 5.0735 10.6877 5.08009 10.4374 5.3501L7.61221 8.32021C7.36195 8.58364 7.37513 8.99853 7.63855 9.24879C7.76368 9.36733 7.92832 9.43319 8.09296 9.43319V9.4266Z" fill="#06E097"/>
<path d="M15.6122 5.32391C15.3488 5.07365 14.9339 5.08024 14.6836 5.35025L8.09142 12.2783L5.03569 9.06454C4.78544 8.80112 4.37055 8.78795 4.10712 9.0382C3.8437 9.28845 3.83053 9.70335 4.08078 9.96677L5.06204 11.0007L3.85028 12.2717L1.15018 9.43334C0.899923 9.16991 0.485029 9.15674 0.221604 9.40699C-0.0418212 9.65725 -0.0549924 10.0721 0.195261 10.3356L3.07318 13.365C3.27733 13.5757 3.56051 13.7008 3.85028 13.7008C4.14005 13.7008 4.42323 13.5757 4.62739 13.365L5.97085 11.9556L7.31432 13.365C7.51847 13.5757 7.80166 13.7008 8.09142 13.7008C8.38119 13.7008 8.66437 13.5757 8.86853 13.365L15.6385 6.25248C15.8888 5.98906 15.8822 5.57416 15.6122 5.32391Z" fill="#06E097"/>
</svg>
