<svg width="17" height="18" viewBox="0 0 17 18" fill="none" xmlns="http://www.w3.org/2000/svg">
<path fill-rule="evenodd" clip-rule="evenodd" d="M3.80225 3.01341C4.02269 2.79298 4.02269 2.43557 3.80225 2.21513C3.58181 1.99469 3.22441 1.99469 3.00397 2.21513L0.746094 4.47301C0.525655 4.69345 0.525655 5.05085 0.746094 5.27129L3.00397 7.52917C3.22441 7.74961 3.58181 7.74961 3.80225 7.52917C4.02269 7.30873 4.02269 6.95133 3.80225 6.73089L2.50799 5.43662H10.7412C12.9235 5.43662 14.6925 7.20568 14.6925 9.38791C14.6925 9.69966 14.9452 9.95238 15.257 9.95238C15.5687 9.95238 15.8214 9.69966 15.8214 9.38791C15.8214 6.58218 13.547 4.30768 10.7412 4.30768H2.50799L3.80225 3.01341ZM2.27433 9.38788C2.27433 9.07613 2.02161 8.82341 1.70986 8.82341C1.39811 8.82341 1.14539 9.07613 1.14539 9.38788C1.14539 12.1936 3.41989 14.4681 6.22562 14.4681H14.4589L13.1646 15.7624C12.9441 15.9828 12.9441 16.3402 13.1646 16.5607C13.385 16.7811 13.7424 16.7811 13.9629 16.5607L16.2207 14.3028C16.3266 14.1969 16.3861 14.0533 16.3861 13.9036C16.3861 13.7539 16.3266 13.6104 16.2207 13.5045L13.9629 11.2466C13.7424 11.0262 13.385 11.0262 13.1646 11.2466C12.9441 11.4671 12.9441 11.8245 13.1646 12.0449L14.4589 13.3392H6.22562C4.04338 13.3392 2.27433 11.5701 2.27433 9.38788Z" fill="#F3FF6A"/>
</svg>
